<?xml version="1.0" encoding="UTF-8"?>
<svg id="_레이어_2" data-name="레이어 2" xmlns="http://www.w3.org/2000/svg" viewBox="0 0 522.88 682.61">
  <defs>
    <style>
      .cls-1 {
        fill: #fff;
      }
    </style>
  </defs>
  <g id="_레이어_1-2" data-name="레이어 1">
    <g>
      <path class="cls-1" d="m222.85,229.79c-5.31-7.66-10.56-15.35-15.97-22.94-1.16-1.62-2.87-2.84-4.32-4.24-.69,2.15-2.01,4.32-1.96,6.45.34,14.9,7.4,26.39,18.69,35.45,5.77,4.63,11.85,8.88,17.27,14.33-6.12-2.68-12.48-4.93-18.3-8.16-8.14-4.51-16.33-9.16-23.7-14.81-12.14-9.29-15.27-22.34-10.12-36.27,4.76-12.86,11.44-25,18.12-37.38,4.36,23.41,10.74,45.8,22.27,66.49-.66.36-1.31.71-1.97,1.07Z"/>
      <path class="cls-1" d="m466.5,682.61c-2.88-4.96-6.37-9.68-8.54-14.94-8.63-20.96-25.76-30.47-46.21-35.64-15.46-3.91-31.09-7.16-46.44-11.46-23.4-6.57-38.99-22.16-47.87-44.64-2.88-7.28-4.86-14.92-7.52-22.3-.59-1.65-2.12-3.77-3.6-4.15-17.08-4.36-34.25-8.37-51.37-12.59-15.39-3.8-30.29-3.91-44.15,5.24-.24.16-.65.07-1.73.14.77-2.43,1.29-4.67,2.17-6.76,7.16-17.11,19.98-29.04,36.15-36.75,17.15-8.17,34.8-15.42,52.67-21.85,35.68-12.84,63.24-35.65,83.29-67.58,15.99-25.46,21.66-53.32,14.77-83.05-3.96-17.1-14.46-30.32-26.67-42.28-4.11-4.02-8.33-7.92-12.5-11.88.13-.45.26-.9.39-1.35,4.83.78,9.71,1.32,14.49,2.36,43.81,9.61,76.14,35.56,100.33,72.55,7.26,11.1,13.26,23.07,19.38,34.88,1.18,2.29,1.14,6.12.08,8.53-6.53,14.9-16.92,27.13-27.47,39.27-11.28,12.99-23.26,25.52-33.21,39.5-23.31,32.79-23.08,66.34-.64,99.73,7.04,10.48,14.26,20.85,21.43,31.24,12.57,18.21,16.82,38.58,15.55,60.4-.45,7.61-.81,15.23-1.21,22.85-.53.17-1.05.35-1.58.52Zm-136.14-147.86c-.12.96-.03,1.53-.27,1.9-8.82,13.89-6.47,27.62.41,41.38,8.56,17.09,23.38,26.41,40.58,32.02,16.6,5.42,33.61,9.58,50.41,14.36,9.63,2.74,19.44,5.15,26.67,12.96.78.84,1.95,1.71,3.01,1.82,2.07.2,4.5.44,6.18-.46.94-.51,1.3-3.43.88-4.99-2.05-7.56-3.28-15.67-6.96-22.39-7.84-14.33-16.57-28.23-25.74-41.76-20.55-30.33-24.23-61.89-5.68-93.98,7.59-13.13,18.45-24.39,28.19-36.2,10.19-12.35,21.23-24,31.12-36.57,9.02-11.47,8.9-24.4,2.54-37.2-2.65-5.32-5.72-10.53-9.3-15.25-12.75-16.81-28.17-31.01-44.22-44.51-10.38-8.72-21.92-15.56-34.71-20.1-1.66-.59-3.7-.06-5.57-.05.69,1.8,1.18,3.7,2.12,5.36,1.08,1.92,2.76,3.5,3.83,5.43,20.79,37.27,21.47,74.92.85,112.33-13.09,23.74-32.23,42.2-53.96,57.94-15.91,11.52-32.46,21.79-52,26.2-9.74,2.2-19.54,4.58-28.88,8.07-10.19,3.8-19.77,9.2-26.86,17.89-1.22,1.49-2.03,4.26-1.49,5.93.37,1.15,3.36,1.8,5.26,2.02,6.23.75,12.53.98,18.75,1.81,24.79,3.3,49.23,10.53,74.83,6.06Z"/>
      <path class="cls-1" d="m116.81,259.73c-8.35,2.96-14.98,7.84-19.98,14.35-7.36,9.59-14.06,19.72-20.83,29.76-9.34,13.86-20.57,25.05-37.69,28.36-1.16.22-2.33.46-3.51.56-.64.06-1.29-.15-2.19-.27,1.3-18.57,17.43-27.75,25.44-41.95-10.05,6.61-18.9,14.3-23.24,25.92-2.8,7.5-4.87,15.28-7.63,22.8-2,5.46-5.72,9.6-11.96,9.61-5.99,0-10.22-4.07-11.8-9.16C1.35,332.98-.03,325.75,0,318.74c.08-20.36,8.67-38.09,18.63-55.19,4.04-6.93,8.76-13.46,12.63-20.47,2.07-3.73,3.93-8.02,4.29-12.2,3.13-36.47,17.48-68.25,39.33-96.95,21.21-27.86,47.46-49.7,78.43-65.75,2.14-1.11,4.87-1.06,7.33-1.55-.87,2.75-1.01,6.14-2.74,8.15-14.02,16.31-21.34,35.95-28.08,55.91-.1.29.02.66.09,2.04,4.05-2.42,7.73-4.54,11.33-6.8,11.38-7.12,22.5-14.72,34.17-21.31,7.93-4.48,16.92-6.09,26.13-5.3,6.1.52,6.62,1.36,5.04,7.42-2.65,10.21-9.58,17.53-16.45,24.93-21.22,22.85-33.33,49.54-31.58,81.23,1.16,21.13,8.68,40.6,18.3,59.33,4.73,9.2,8.55,18.88,12.56,28.44.83,1.97.77,4.36.97,6.56.96,10.59-1.43,12.96-12.24,12.1-8.94-.71-16.71-4.39-23.65-9.9-15.94-12.65-27.19-29.02-36.31-47.03-.38-.75-.77-1.49-1.38-2.67Zm2.29-14.57c4.63,9.18,8.78,17.95,13.42,26.45,9.53,17.46,21.88,32.18,40.54,40.39,5.8,2.56,8.99.81,10.09-5.55,1.48-8.56-1.62-16.17-5.08-23.66-5.8-12.55-11.75-25.02-17.49-37.6-16.02-35.13-14.2-68.7,9.06-100.2,8.21-11.12,16.8-21.96,25.04-33.05,1.41-1.9,1.97-4.44,2.92-6.69-2.53.16-5.25-.25-7.55.56-22.56,7.87-43.88,17.68-58.21,38.34-1.8,2.59-4.56,4.57-7.1,6.55-1.49,1.16-3.41,1.76-6.07,3.08,0-3.06-.37-5.15.06-7.04,2.03-8.95,3.73-18.03,6.61-26.71,2.63-7.91,6.72-15.31,9.91-23.05.61-1.49.03-3.48,0-5.24-1.53.4-3.37.38-4.54,1.27-7.19,5.44-14.59,10.68-21.25,16.72-32.46,29.41-53.06,65.81-62.53,108.73-1.07,4.84-1.16,8.72,4.06,11.53-1.27,1.62-2.27,2.93-3.31,4.22-4.18,5.17-8.49,10.24-12.46,15.57-.93,1.24-.7,3.36-1,5.07,1.56-.07,3.26.25,4.66-.27,13.82-5.04,24.97-13.94,33.75-25.56,10.28-13.6,19.88-27.72,29.82-41.59.9-1.26,2.07-2.31,3.7-4.1,2.37,8.47,2.49,15.86.55,23.27-3.18,12.21-10.83,21.04-20.86,28.16-26.2,18.58-48.38,40.87-63.12,69.96-.59,1.17-1.49,2.18-2.25,3.26.81-5.46,2.58-10.42,4.39-15.36,3.63-9.92,7.42-19.8,10.81-29.81.51-1.51-.77-3.62-1.22-5.46-1.44,1.02-3.26,1.75-4.27,3.09-10.6,14.16-17.4,30.06-20.92,47.42-1.86,9.17-2.68,18.33.45,27.35.67,1.91,2.49,3.42,3.77,5.12,1.54-1.38,3.58-2.47,4.53-4.18,6.57-11.78,12.75-23.77,19.36-35.53,6.65-11.82,14.14-23.11,25.88-30.5,4.25-2.68,9.12-4.36,13.71-6.49.3.49.59.98.89,1.48-1.05,2.1-1.98,4.28-3.17,6.3-7.69,13.1-15.5,26.13-23.12,39.27-1.08,1.87-1.36,4.21-2.01,6.33.56.3,1.12.59,1.68.89,1.8-1.41,3.71-2.69,5.37-4.25,13.3-12.56,23.57-27.4,31.46-43.86,2.19-4.58,4.49-7.78,9.78-9.13,3.78-.97,7.28-3.62,10.52-6.03,3.64-2.71,6.85-6.01,10.73-9.48Zm-40.07-14.32c11.73-.33,22.68-16.33,17.7-24.63-5.8,8.07-11.67,16.24-17.7,24.63Z"/>
      <path class="cls-1" d="m520.27,225.55c-3.32-4.68-6.48-9.49-9.99-14.02-8.13-10.49-15.78-21.46-24.83-31.1-8.38-8.93-19.55-13.14-32.58-13.13,1.24,9.8,5.94,17.11,12.69,23.06,4.84,4.27,10.01,8.24,15.41,11.77,20.41,13.35,31.26,32.84,35.54,56.33,1.8,9.89,2.34,20.01,3.4,30.03.08.78-.2,1.6-.48,3.59-1.67-1.89-2.73-3.03-3.72-4.23-9.99-12.08-19.57-24.55-30.09-36.14-8.16-8.99-18.75-14.6-30.73-17.15-1.65-.35-3.36-.5-5.05-.62-.81-.06-1.63.17-2.61.29.02,5.05,3.18,7.87,6.47,10.58,23.4,19.22,39.46,43.6,49.19,72.17,6.28,18.47,6.28,37.28.56,56.01-.53,1.75-1.29,3.43-2.34,6.17-3.68-6.83-6.81-12.76-10.06-18.62-12.58-22.68-27.38-43.59-46.68-61.11-12.31-11.18-27.25-17.11-42.31-23-5.7-2.23-11.33-4.61-17.04-6.8-19.28-7.36-31.18-21.53-36.54-41.2-12.09-44.38-9.51-88.04,7.89-130.57,2.99-7.3,7.88-13.94,12.58-20.38,8.3-11.39,19.64-13.48,32.7-9.83,12.98,3.63,24.38,10.35,35.41,17.77,21.67,14.56,42.69,30.08,59.8,50.04,22.12,25.79,30.86,55.68,23.42,90.1Zm-9.8-27.36c4.36-2.57,2.31-5.87,1.71-8.54-5.04-22.08-15.96-40.92-31.57-57.08-26.29-27.23-58.91-44.17-93.41-57.95-1.64-.66-5.12.69-6.39,2.23-4.76,5.77-9.74,11.58-13.22,18.14-19.75,37.21-25.08,76.71-16.07,117.84,5.96,27.23,21.05,46.87,48.6,55.61,10.62,3.37,21.17,7.69,30.85,13.19,26.9,15.26,48.08,36.64,63.6,63.62.88,1.53,2.75,2.48,4.16,3.7.62-1.67,1.67-3.32,1.79-5.03,1.69-24.19-6.37-44.64-23.46-61.62-9.55-9.49-19.17-18.91-28.42-28.7-8.26-8.75-14.21-18.66-13.83-31.49.14-4.74,2.11-5.94,5.92-4.5,9.01,3.4,18.51,6.08,26.66,10.98,9.07,5.47,16.74,13.26,25.31,19.65,2.32,1.73,5.67,2.05,8.55,3.02.28-2.83,1.34-5.85.72-8.46-2.96-12.44-10.97-21.45-20.9-28.8-8.07-5.97-16.56-11.38-24.63-17.35-10.44-7.72-17.68-17.58-17.96-31.2-.05-2.38,1.16-5.31,2.77-7.08,4-4.41,9.44-6.52,15.25-5.19,5.04,1.15,10.18,2.9,14.59,5.54,13.97,8.36,24.15,20.85,34.22,33.37,1.67,2.07,3.44,4.06,5.16,6.09Z"/>
      <path class="cls-1" d="m361.2,261.07c-11.21-4.53-22.08-8.69-32.76-13.28-25-10.74-49.94-21.55-77.13-25.61-1.71-.26-3.7-1.83-4.68-3.36-17.88-28.16-23.89-58.86-18.84-91.79,1.96-12.78,6.15-24.82,12.44-36.13,1.65-2.97,3.07-6.12,4.2-9.33,4.04-11.5.06-20.35-11.21-24.73-10.39-4.04-21.33-4.6-32.13-3.02-10.35,1.52-20.5,4.38-30.75,6.64-.64.14-1.29.19-2.75-.71,3.61-3.39,6.94-7.18,10.89-10.11,15.5-11.54,33.45-17.14,52.04-20.99,13.02-2.7,26.12-3.99,39.49-2.99,4.5.34,10.17-.24,13.59-2.76,15.47-11.41,33.27-16.11,51.51-19.48,31.27-5.78,62.26-4.45,92.53,5.99,14.94,5.15,28.58,12.67,39.6,24.38,1.11,1.18,2.08,2.49,3.14,3.76-8.85,0-17.31-.61-25.65.12-24.77,2.17-47.67,10.19-68.77,23.52-11.03,6.97-17.69,17.36-22.68,28.98-11.69,27.22-19.98,55.37-19.39,85.33.59,29.57,9.07,56.87,25.75,81.42.48.7.96,1.41,1.37,2.15.14.26.07.65.18,2.04ZM255.18,34.15c-6.62.42-12.17.14-17.43,1.26-5.89,1.26-11.56,3.68-17.22,5.86-.94.36-1.95,2.15-1.84,3.16.09.77,1.83,1.66,2.97,1.92,2.81.65,5.73.78,8.53,1.44,15.46,3.63,23.86,13.85,22.34,28.84-.61,6.08-3.7,11.95-5.99,17.79-2.41,6.18-6.05,11.99-7.68,18.34-8.65,33.64-3.27,66.09,9.11,97.83,1.36,3.49,3.85,4.61,7.28,5.36,9.1,1.97,18.53,3.35,27.06,6.86,17.41,7.17,34.3,15.62,51.47,23.41,1.99.9,4.37.91,6.57,1.33-.03-2.3-.06-4.59-.1-6.89,0-.16-.12-.32-.15-.49-3.17-16.25-7.19-32.4-9.33-48.79-4.51-34.53,2.57-67.69,13.84-100.13,5.69-16.38,15.08-29.97,30.52-38.3,8.94-4.83,18.18-9.37,27.75-12.65,11.36-3.89,23.22-6.26,34.85-9.39,1.19-.32,3.1-1.22,3.14-1.93.06-1.27-.9-2.7-1.72-3.86-.56-.79-1.6-1.23-2.45-1.8-19.03-12.74-40.59-16.46-62.71-16.08-32.27.56-62.22,9.62-89.06,28.18-1.48,1.02-3.75,1.44-5.58,1.29-8.45-.73-16.87-1.76-24.15-2.56Z"/>
      <path class="cls-1" d="m222.73,113.11c0,2.17.23,3.41-.03,4.53-9.7,41.71,1.16,79.09,23.74,113.95,7.74,11.95,16.95,22.59,28.03,31.63,7.03,5.73,13.43,12.08,14.75,21.94.46,3.43-.55,5.53-3.29,7.27-7.81,4.96-16.29,4.05-24.68,2.66-12.44-2.07-23.51-7.62-33.87-14.68-13.63-9.3-27.16-18.74-40.82-27.99-21.69-14.7-26.2-32.12-21.28-57.63,3.89-20.16,15.64-36.14,28.8-51.13,8.43-9.61,17.12-18.99,25.71-28.45.52-.57,1.27-.92,2.93-2.1Zm58.84,172.76c-1.14-2.92-1.45-4.98-2.57-6.4-6.33-8-12.43-16.26-19.38-23.69-31.62-33.77-46.83-73.32-42.77-119.95.11-1.27-.71-3.28-1.68-3.77-.83-.42-2.82.52-3.76,1.42-16.96,16.31-30.3,35.13-37.29,57.85-6.85,22.28-2.97,41.83,16.1,56.96,23.61,18.74,49.99,31.34,79.61,36.84,3.41.63,6.97.46,11.74.74Z"/>
      <path class="cls-1" d="m217.97,105.62c-.11-10.29-1.21-11.69-10.31-14.71-9.35-3.1-18.67-2.17-27.34,1.68-8.8,3.91-17.03,9.12-25.48,13.8-1.53.85-2.94,1.9-4.8,2.42,5.89-15.15,12.29-29.94,25.79-39.66,10.18-7.33,22.23-8.09,34.24-6.8,5.66.61,11.39,2.12,16.7,4.22,11.96,4.72,14.56,16.97,5.65,26.39-4.18,4.42-9.15,8.07-14.45,12.66Z"/>
      <path class="cls-1" d="m434.64,613.91c-21.45-7.64-43.02-14.98-64.33-23-1.54-.58-3.09-1.17-4.63-1.76-7.18-2.74-13.83-7.3-20.12-11.87-9.03-6.56-11.36-14.38-7.13-24.79,2.8-6.9,7.09-13.19,10.76-19.73,1.34-2.38,3.03-4.59,4.11-7.08.88-2.03,1.08-4.36,1.58-6.55-2.07-.45-4.13-1.17-6.22-1.28-1.63-.08-3.45.27-4.93.98-11.3,5.4-23.04,4.95-34.92,2.9-14.65-2.52-29.3-5.08-44.24-8.28,7.04-1.16,14.03-2.75,21.11-3.39,12.85-1.15,25.87-.93,38.6-2.79,9.59-1.4,19.33-4.08,28.13-8.11,8.43-3.86,13.93-10.04,17.9-17.35,3.21-5.92,5.41-12.59,7.31-19.38.86-3.07,1.95-6.08,3.28-10.2,3.23,2.35,5.87,4.04,8.22,6.06,1.65,1.43,2.97,3.29,4.33,5.04,3.62,4.65,7.19,9.34,10.77,14.02-4.49,11.5-3.18,25.55-14.75,33.95-1.09.79-1.95,1.92-3.01,2.76-20.6,16.24-16.38,40.81-5.06,54.83,6.64,8.22,15.33,14.88,23.66,21.53,8.76,7,18.19,13.16,27.34,19.67,1.2.86,2.48,1.61,3.72,2.41-.5.47-.99.93-1.49,1.4Z"/>
      <path class="cls-1" d="m417.33,447.11c1.36-11.3,2.06-22.73,4.26-33.86,2.17-11.01,5.92-21.69,8.79-32.57.4-1.51-.26-3.31-.44-4.98-1.34.84-3.09,1.39-3.95,2.58-9.89,13.72-15.46,29.26-17.68,45.9-1.26,9.46-1.32,19.08-1.88,28.63-.11,1.81-.02,3.64-.02,4.27-5.42-5.53-11.13-11.37-17.08-17.45,27.08-36.9,44.56-77.93,28.91-127.41,8.44,7.09,16.97,14.07,25.21,21.37,1.26,1.12,1.47,3.7,1.72,5.66,2.02,15.89-1.22,31.31-4.23,46.75-.72,3.69-1.52,7.38-1.99,11.1-.15,1.15.57,3.39,1.08,3.45,1.29.15,3.33-.22,3.95-1.15,3.2-4.78,6.82-9.51,8.83-14.81,3.1-8.22,5.01-16.89,7.58-25.94,5.8,7.19,8.61,15.18,7.33,24.38-1.28,9.22-5.29,17.46-11.28,24.33-12.08,13.82-24.68,27.18-37.06,40.72-.69-.33-1.37-.65-2.06-.98Z"/>
      <path class="cls-1" d="m420.81,585.3c-14.82-6.17-26.28-15.96-32.41-31.02-4.86-11.93-2.85-23.07,5.6-32.9.53-.62,1.2-1.13,2.94-2.73-.51,25.97,8.46,47.42,23.87,66.65Z"/>
      <path class="cls-1" d="m361.55,467.12c-4.02,18.53-29.22,31.71-48.44,31.3,15.93-10.29,32.4-20.93,48.44-31.3Z"/>
      <path class="cls-1" d="m168,126.51c-16.79,22.06-23.6,48.85-35.17,73.25-5.97,12.59-13,24.38-23.94,33.32-1.38,1.13-2.88,2.11-4.68,2.91,15.77-22.45,27.54-45.2,7.09-72.65,16.95,4.07,26.88-4.57,36.03-15.07,5.37-6.17,10.9-12.2,16.43-18.22,1.24-1.35,2.82-2.38,4.24-3.55Z"/>
      <path class="cls-1" d="m56.21,221.15c.52-1.64.72-2.6,1.12-3.46,10.37-21.91,20.48-43.94,31.26-65.64,4.78-9.62,11.33-18.21,20.67-24.63-2.29,6.65-4.46,13.35-6.91,19.94-5.17,13.91-9.99,27.99-15.88,41.59-5.15,11.89-12.94,22.08-23.98,29.32-1.28.84-2.6,1.62-3.94,2.36-.42.23-.96.23-2.35.53Z"/>
      <path class="cls-1" d="m163.82,288.9c-5.72-6.17-11.97-11.94-17.02-18.62-6.11-8.09-11.83-16.63-16.58-25.59-4.63-8.73-3.23-13.17,3.47-20.16,1.52-1.58,2.76-3.44,4.58-5.74,9.21,23.73,17.94,46.22,26.66,68.71-.37.47-.74.94-1.12,1.41Z"/>
      <path class="cls-1" d="m448.15,206.29c-22.95-6.93-43.43-17.57-59.1-36.33-7.3-8.74-15.57-16.67-23.3-25.05-.91-.99-2.03-2.8-1.7-3.77,4.93-14.7,8.46-30.02,17.61-42.94,8.16-11.53,10.3-11.72,21.05-2.92,2.84,2.33,4.14,4.52,3.53,8.67-2.12,14.34,1.28,28.19,4.95,41.94.17.63.52,1.29.97,1.76.44.46,1.11.71,2.51,1.55.96-2.35,2.37-4.39,2.55-6.53.58-6.97.55-13.99,1.08-20.97.37-4.94,1.27-9.85,2.07-15.81,19.09,9.96,34.54,21.89,48.01,37.04-1.62-.47-3.27-.88-4.87-1.43-25.11-8.69-44.21,8.25-39.42,34.76,1.61,8.93,6.21,15.79,12.89,21.44,3.59,3.04,7.45,5.76,11.19,8.63Z"/>
      <path class="cls-1" d="m479.72,306.08c-7.08-6.56-14.18-13.1-21.25-19.68-15.96-14.86-32.52-29.13-47.66-44.8-12.5-12.94-23.29-27.56-34.9-41.39-1.12-1.33-2.69-2.26-4.05-3.38-.78,1.74-2.14,3.44-2.26,5.23-.71,10.96,3.61,20.11,11.17,27.61,6.89,6.83,14.31,13.11,21.39,19.76,2.05,1.93,3.71,4.29,4.98,7.63-1.5-.25-3.05-.34-4.5-.77-21.56-6.35-33.37-21.84-39.07-42.81-3.85-14.18-4.42-28.68-3.03-43.26.14-1.5.54-2.98,1.14-6.22,7.67,6.01,14.89,10.99,21.33,16.84,14.82,13.47,25.97,30.03,34.71,47.82,10.88,22.13,26.33,39.98,44.61,55.96,6.85,5.99,12.54,13.31,18.76,20.02-.46.47-.91.95-1.37,1.42Z"/>
      <path class="cls-1" d="m252,194.61c-6.09-13.25-7.03-26.15-6.64-39.47.36-12.26,5.72-18.18,17.63-21.94,23.05-7.28,44.66-18.23,64.06-33.09.5-.38,1.11-.61,2.58-1.39-10.2,42.73-17.25,84.81-5.05,128.72-2.34-.96-3.96-1.5-5.46-2.28-7.38-3.83-14.79-7.61-22.02-11.72-1-.57-1.91-3.34-1.4-4.21,1.98-3.33,4.67-6.21,6.87-9.43,1.04-1.53,1.56-3.43,2.31-5.16-1.9-.33-3.81-1.02-5.68-.92-6.37.34-10.51,4.1-13.7,9.37-.73,1.2-2.45,2.72-3.56,2.59-6.37-.71-12.68-1.86-20.12-3.04,1.5-3.23,2.61-6.55,4.45-9.4,5.71-8.83,13.61-15.16,23.13-19.47.93-.42,2.05-.59,2.78-1.23,1.04-.91,1.8-2.15,2.67-3.24-1.27-.66-2.52-1.85-3.81-1.9-8.81-.34-17.1,2.01-23.67,7.78-5.01,4.4-8.8,10.22-13.07,15.45-.72.88-1.16,1.99-2.29,3.98Z"/>
      <path class="cls-1" d="m342.22,61.96c-16.85,32.2-46.01,44.28-77.71,52.85,1.7-1.4,3.38-2.82,5.1-4.2,5.87-4.7,10.68-10.09,11.26-18.11.41-5.65-1.83-7.47-6.98-4.96-3.27,1.59-6.05,4.27-8.91,6.62-1.39,1.15-2.48,2.67-4.66,5.08,3.77-17.32,8.92-33.36-2.63-49.51,29.29-.88,57.73-3.24,84.53,12.23Z"/>
      <path class="cls-1" d="m307.95,35.76c34.53-15.21,69.7-24.2,107.13-11.58.07.47.14.94.2,1.41-6.17,1.74-12.37,3.36-18.49,5.25-10.56,3.26-19.82,8.63-27.52,16.83-6.59,7.02-9.73,8.38-16.54,8.44,1.16-4.27,2.42-8.22,3.25-12.26.37-1.77-.13-3.71-.23-5.58-1.44.6-2.85,1.28-4.33,1.77-3.5,1.17-7.15,3.48-10.51,3.14-11.04-1.13-21.98-3.23-32.95-4.96,0-.82,0-1.65-.01-2.47Z"/>
    </g>
  </g>
</svg>